<?xml version="1.0" encoding="utf-8"?>
<!-- Generator: Adobe Illustrator 23.0.2, SVG Export Plug-In . SVG Version: 6.00 Build 0)  -->
<svg version="1.1"
	 id="Layer_1" xmlns:cc="http://creativecommons.org/ns#" xmlns:dc="http://purl.org/dc/elements/1.1/" xmlns:inkscape="http://www.inkscape.org/namespaces/inkscape" xmlns:rdf="http://www.w3.org/1999/02/22-rdf-syntax-ns#" xmlns:sodipodi="http://sodipodi.sourceforge.net/DTD/sodipodi-0.dtd" xmlns:svg="http://www.w3.org/2000/svg"
	 xmlns="http://www.w3.org/2000/svg" xmlns:xlink="http://www.w3.org/1999/xlink" x="0px" y="0px" viewBox="0 0 56.1 42.1"
	 style="enable-background:new 0 0 56.1 42.1;" xml:space="preserve">
<style type="text/css">
	.st0{fill:#3C78D3;}
</style>
<g transform="translate(0,-952.36218)">
	<path class="st0" d="M50.9,952.4c-1.3,0-2.5,0.6-3.4,1.5c-9.7,9.7-18.5,19.3-27.9,28.8l-11.5-9.2c-2.2-1.7-5.3-1.4-7,0.8
		c-1.7,2.2-1.4,5.3,0.8,7c0,0,0,0,0,0l15,12c2,1.6,4.9,1.4,6.7-0.4c10.8-10.8,20.4-21.4,31-32c2-1.9,2-5.1,0.1-7.1
		C53.7,952.9,52.3,952.3,50.9,952.4z"/>
</g>
</svg>
