<?xml version="1.0" encoding="utf-8"?>
<!-- Generator: Adobe Illustrator 23.0.2, SVG Export Plug-In . SVG Version: 6.00 Build 0)  -->
<svg version="1.1" id="Layer_1" xmlns="http://www.w3.org/2000/svg" xmlns:xlink="http://www.w3.org/1999/xlink" x="0px" y="0px"
	 viewBox="0 0 79.4 79.3" style="enable-background:new 0 0 79.4 79.3;" xml:space="preserve">
<style type="text/css">
	.st0{fill:#FFFFFF;}
</style>
<g>
	<path class="st0" d="M79.4,57.7v17.6c0,0.3-0.1,0.7-0.1,1l0,0l0,0c-0.3,1.7-1.9,3-3.7,3H3.8c-1.9,0-3.5-1.5-3.7-3.3
		C0,75.7,0,75.5,0,75.2V57.6c0-2.1,1.7-3.8,3.8-3.8c1,0,2,0.4,2.7,1.1c0.7,0.7,1.1,1.6,1.1,2.7v14.1h64.4V57.6
		c0-2.1,1.7-3.8,3.8-3.8c1,0,2,0.4,2.7,1.1C79,55.7,79.4,56.7,79.4,57.7z"/>
	<path class="st0" d="M61.3,40.1L42.9,58.5c0,0.1-0.1,0.1-0.1,0.1c-0.7,0.7-1.5,1.1-2.4,1.2c-0.1,0-0.2,0-0.2,0c-0.2,0-0.3,0-0.5,0
		l0,0l-0.4,0c-0.1,0-0.2,0-0.2,0c-0.9-0.1-1.8-0.6-2.4-1.2c0,0-0.1-0.1-0.1-0.1L18.1,40.1c-0.9-0.8-1.3-2-1.3-3.1s0.4-2.3,1.3-3.1
		c1.7-1.7,4.5-1.7,6.2,0L35.4,45V4.4c0-2.4,2-4.4,4.4-4.4c1.2,0,2.3,0.5,3.1,1.3c0.8,0.8,1.3,1.9,1.3,3.1V45l11.1-11.1
		c1.7-1.7,4.5-1.7,6.2,0C63,35.6,63,38.4,61.3,40.1z"/>
</g>
</svg>
