<?xml version="1.0" encoding="utf-8"?>
<!-- Generator: Adobe Illustrator 23.0.2, SVG Export Plug-In . SVG Version: 6.00 Build 0)  -->
<svg version="1.1"
	 id="Layer_1" xmlns:cc="http://creativecommons.org/ns#" xmlns:dc="http://purl.org/dc/elements/1.1/" xmlns:inkscape="http://www.inkscape.org/namespaces/inkscape" xmlns:rdf="http://www.w3.org/1999/02/22-rdf-syntax-ns#" xmlns:sodipodi="http://sodipodi.sourceforge.net/DTD/sodipodi-0.dtd" xmlns:svg="http://www.w3.org/2000/svg"
	 xmlns="http://www.w3.org/2000/svg" xmlns:xlink="http://www.w3.org/1999/xlink" x="0px" y="0px" viewBox="0 0 75 95.8"
	 style="enable-background:new 0 0 75 95.8;" xml:space="preserve">
<style type="text/css">
	.st0{fill:#FFFFFF;}
</style>
<g transform="translate(0,-284.29998)">
	<path class="st0" d="M2.2,284.3c-1.2,0-2.2,1-2.2,2.2l0,0v91.4c0,1.2,1,2.2,2.2,2.2h70.6c1.2,0,2.2-1,2.2-2.2v-64.4c0,0,0,0,0-0.1
		s0-0.1,0-0.2s0-0.1,0-0.2s0-0.1-0.1-0.2c0-0.1-0.1-0.1-0.1-0.2l0,0l0,0c0-0.1-0.1-0.1-0.1-0.2s-0.1-0.1-0.1-0.2s-0.1-0.1-0.1-0.2
		l-0.1-0.1l-27-27c-0.4-0.4-1-0.6-1.6-0.6l0,0L2.2,284.3z M4.4,288.7h39.2v24.8c0,1.2,1,2.2,2.2,2.2l0,0h24.8v60H4.4V288.7z
		 M48,291.8l19.5,19.5H48V291.8z M32.4,322.4c-0.5,0-1.1,0-1.6,0.2c-2.2,0.6-3.8,2.5-4,4.6c-0.2,2,0.5,4,1.5,6.2
		c1,1.9,3.1,4,4.7,6.1c-0.4,2.5-0.3,4.5-1,7.1s-1.8,4.3-2.7,6.6c-2.4,1-5.3,1.8-7.1,3c-2,1.3-3.6,2.7-4.4,4.6s-0.4,4.3,1.2,5.9
		s4.1,2,6,1.2s3.2-2.4,4.6-4.4c1.2-1.8,1.9-4.7,2.9-7.1c2.3-0.9,4-2,6.6-2.7s4.6-0.6,7.1-1c2.1,1.6,4.2,3.7,6.1,4.7
		c2.1,1.1,4.1,1.7,6.2,1.5c2-0.2,4-1.8,4.6-4s-0.3-4.5-1.9-5.7c-1.7-1.2-3.7-1.6-6.1-1.8c-2.1-0.1-5.1,0.7-7.6,1
		c-2-1.6-3.8-2.5-5.7-4.4s-2.8-3.7-4.4-5.7c0.3-2.6,1.1-5.5,1-7.6c-0.2-2.4-0.6-4.5-1.8-6.1C35.6,323.3,34,322.5,32.4,322.4
		L32.4,322.4z M32.4,326.4c0.4-0.1,0.5,0.1,0.8,0.5c0.4,0.6,0.9,2,1,4c0,0.7-0.4,2-0.4,2.9c-0.4-0.7-1.4-1.6-1.7-2.3
		c-0.9-1.8-1.2-3.3-1.1-4s0-0.7,1-1C32.1,326.5,32.2,326.4,32.4,326.4L32.4,326.4z M36.5,344c0.9,1,1.3,2,2.2,2.9s1.9,1.3,2.9,2.2
		c-1.3,0.3-2.3,0.1-3.6,0.5c-1.3,0.3-2.1,1-3.4,1.4c0.4-1.3,1.1-2.1,1.4-3.4C36.4,346.3,36.2,345.3,36.5,344L36.5,344z M54.7,351.4
		c2,0.1,3.4,0.6,4,1s0.6,0.4,0.4,1.3c-0.3,1-0.3,0.9-1,1s-2.2-0.2-4-1.1c-0.7-0.3-1.6-1.3-2.3-1.8C52.6,351.8,53.9,351.4,54.7,351.4
		L54.7,351.4z M27.1,358.4c-0.4,0.7-0.7,2.1-1.1,2.7c-1.1,1.7-2.2,2.7-2.9,3c-0.6,0.3-0.6,0.4-1.3-0.3c-0.7-0.7-0.6-0.7-0.3-1.3
		c0.3-0.6,1.3-1.8,3-2.9C25.1,359.1,26.4,358.8,27.1,358.4L27.1,358.4z"/>
</g>
</svg>
